<?xml version="1.0" encoding="iso-8859-1"?>
<!-- Generator: Adobe Illustrator 19.0.0, SVG Export Plug-In . SVG Version: 6.00 Build 0)  -->
<svg xmlns="http://www.w3.org/2000/svg" xmlns:xlink="http://www.w3.org/1999/xlink" version="1.1" id="Layer_1" x="0px" y="0px" viewBox="0 0 510.933 510.933" style="enable-background:new 0 0 510.933 510.933;" xml:space="preserve">
<path style="fill:#415A6B;" d="M245.238,490.667c3.2-45.867,19.2-163.2,84.267-292.267h-24.533  c-64,131.2-78.933,246.4-82.133,292.267H245.238z"/>
<path style="fill:#FFD15C;" d="M437.238,157.867c11.733,23.467,14.933,43.733,4.267,53.333c-9.6,9.6-29.867,7.467-53.333-4.267  c-8.533,25.6-20.267,40.533-34.133,40.533c-13.867,0-25.6-16-34.133-40.533c-23.467,11.733-43.733,13.867-53.333,4.267  c-9.6-9.6-7.467-29.867,4.267-53.333c-25.6-8.533-41.6-20.267-41.6-34.133s16-25.6,40.533-34.133  c-11.733-23.467-13.867-43.733-4.267-53.333c9.6-9.6,29.867-7.467,53.333,4.267C327.372,14.933,340.172,0,352.972,0  c12.8,0,25.6,16,34.133,41.6c23.467-11.733,43.733-14.933,53.333-4.267c9.6,10.667,7.467,29.867-4.267,53.333  c25.6,8.533,40.533,21.333,40.533,34.133C478.838,136.533,462.838,149.333,437.238,157.867z"/>
<circle style="fill:#F7B64C;" cx="354.038" cy="122.667" r="49.067"/>
<circle style="fill:#F3705A;" cx="354.038" cy="122.667" r="25.6"/>
<path style="fill:#415A6B;" d="M242.038,490.667c-3.2-38.4-14.933-126.933-62.933-226.133h-23.467  c49.067,98.133,61.867,187.733,65.067,226.133H242.038z"/>
<path style="fill:#FFD15C;" d="M68.172,226.133c-9.6,19.2-11.733,35.2-4.267,42.667s23.467,5.333,42.667-4.267  c6.4,20.267,17.067,33.067,27.733,33.067s21.333-12.8,27.733-33.067c19.2,9.6,35.2,11.733,42.667,4.267s5.333-23.467-4.267-42.667  c20.267-6.4,33.067-17.067,33.067-27.733s-12.8-21.333-33.067-27.733c9.6-19.2,11.733-35.2,3.2-42.667  c-7.467-7.467-23.467-5.333-42.667,3.2c-7.467-20.267-17.067-33.067-27.733-33.067c-10.667,0-21.333,12.8-27.733,33.067  c-19.2-9.6-35.2-11.733-42.667-4.267S57.505,150.4,67.105,169.6c-20.267,6.4-33.067,17.067-33.067,27.733  C35.105,209.067,47.905,218.667,68.172,226.133z"/>
<circle style="fill:#F7B64C;" cx="135.372" cy="198.4" r="39.467"/>
<circle style="fill:#F3705A;" cx="135.372" cy="198.4" r="20.267"/>
<g>
	<path style="fill:#66C6B9;" d="M229.238,458.667c-19.2-40.533-22.4-86.4-4.267-128c-23.467,40.533-27.733,86.4-18.133,128H229.238z   "/>
	<path style="fill:#66C6B9;" d="M167.372,510.933c4.267-44.8-9.6-88.533-40.533-121.6C163.105,419.2,183.372,460.8,188.705,502.4   L167.372,510.933z"/>
</g>
<g>
	<path style="fill:#4EC0AA;" d="M164.172,510.933h60.8c-9.6-65.067-42.667-131.2-98.133-190.933   C164.172,379.733,176.972,444.8,164.172,510.933z"/>
	<path style="fill:#4EC0AA;" d="M250.572,510.933c-22.4-76.8,2.133-156.8,64-200.533c-75.733,42.667-113.067,124.8-99.2,200.533   H250.572z"/>
</g>
<path style="fill:#66C6B9;" d="M275.105,510.933c-5.333-77.867,34.133-149.333,101.333-180.267  c-83.2,27.733-136.533,102.4-136.533,180.267H275.105z"/>
<path style="fill:#4EC0AA;" d="M294.305,510.933c-5.333-61.867,11.733-119.467,77.867-142.933  c-82.133,21.333-134.4,81.067-134.4,142.933H294.305z"/>
<g>
</g>
<g>
</g>
<g>
</g>
<g>
</g>
<g>
</g>
<g>
</g>
<g>
</g>
<g>
</g>
<g>
</g>
<g>
</g>
<g>
</g>
<g>
</g>
<g>
</g>
<g>
</g>
<g>
</g>
</svg>
