<?xml version="1.0" encoding="iso-8859-1"?>
<!-- Generator: Adobe Illustrator 19.0.0, SVG Export Plug-In . SVG Version: 6.00 Build 0)  -->
<svg xmlns="http://www.w3.org/2000/svg" xmlns:xlink="http://www.w3.org/1999/xlink" version="1.1" id="Capa_1" x="0px" y="0px" viewBox="0 0 512.001 512.001" style="enable-background:new 0 0 512.001 512.001;" xml:space="preserve">
<path style="fill:#E1E4FB;" d="M449.915,302.377l-38.123,24.614H86.7l-24.614-25.214c2.402-37.224,15.009-72.644,37.822-102.962  L243.992,5.703C246.995,2.101,251.497,0,256,0c4.504,0,9.005,2.101,12.008,5.703l85.549,115.067l-31.518,78.045l110.164,33.62  C442.411,254.35,448.412,278.063,449.915,302.377z"/>
<path style="fill:#C5C9F7;" d="M449.915,302.377l-38.123,24.614H256V0.001c4.504,0,9.005,2.101,12.008,5.703l85.549,115.067  l-31.518,78.045l110.164,33.62C442.411,254.35,448.412,278.063,449.915,302.377z"/>
<path style="fill:#18A7FC;" d="M451.115,315.886c0,106.261-86.451,196.115-195.114,196.115S60.886,422.147,60.886,315.886  c0-4.802,0.902-9.305,1.2-14.107c16.511,5.701,34.22,2.099,49.53-12.008c33.018-30.018,77.145-30.018,110.164,0  c10.507,9.606,22.513,14.407,34.22,14.709c12.306,0.3,24.614-4.504,35.721-14.709c33.018-30.018,77.145-30.018,110.164,0  c14.709,13.508,31.819,17.709,48.029,12.606C450.213,306.881,451.115,311.382,451.115,315.886z"/>
<path style="fill:#1689FC;" d="M451.115,315.886c0,106.261-86.451,196.115-195.114,196.115V304.479  c12.306,0.3,24.614-4.504,35.721-14.709c33.018-30.018,77.145-30.018,110.164,0c14.709,13.508,31.819,17.709,48.029,12.606  C450.213,306.881,451.115,311.382,451.115,315.886z"/>
<g>
	<circle style="fill:#1DE8F1;" cx="165.948" cy="345.904" r="15.009"/>
	<circle style="fill:#1DE8F1;" cx="195.965" cy="405.939" r="15.009"/>
</g>
<circle style="fill:#1BD9DE;" cx="346.053" cy="345.904" r="15.009"/>
<path style="fill:#1DE8F1;" d="M432.204,232.436c-7.504,5.405-16.51,8.406-26.115,8.406H225.983  c-24.916,0-45.026-20.111-45.026-45.026s20.111-45.026,45.026-45.026h47.729c6.003-17.411,22.811-30.018,42.324-30.018h37.522  l58.534,78.045C419.898,209.324,426.801,220.73,432.204,232.436z"/>
<path style="fill:#1BD9DE;" d="M432.204,232.436c-7.504,5.405-16.51,8.406-26.115,8.406H256v-90.053h17.711  c6.003-17.411,22.811-30.018,42.324-30.018h37.522l58.534,78.045C419.898,209.324,426.801,220.73,432.204,232.436z"/>
<path style="fill:#1DE8F1;" d="M286.018,360.912c-11.707,0-22.213,4.504-30.018,11.707c-9.305,8.104-15.009,20.111-15.009,33.319  c0,13.209,5.703,25.216,15.009,33.32c7.805,7.204,18.311,11.707,30.018,11.707c24.916,0,45.026-20.111,45.026-45.026  C331.044,381.023,310.933,360.912,286.018,360.912z"/>
<path style="fill:#1BD9DE;" d="M331.044,405.939c0,24.916-20.111,45.026-45.026,45.026c-11.707,0-22.213-4.504-30.018-11.707  v-66.639c7.805-7.204,18.311-11.707,30.018-11.707C310.933,360.912,331.044,381.023,331.044,405.939z"/>
<g>
</g>
<g>
</g>
<g>
</g>
<g>
</g>
<g>
</g>
<g>
</g>
<g>
</g>
<g>
</g>
<g>
</g>
<g>
</g>
<g>
</g>
<g>
</g>
<g>
</g>
<g>
</g>
<g>
</g>
</svg>
