<?xml version="1.0" encoding="iso-8859-1"?>
<!-- Generator: Adobe Illustrator 19.0.0, SVG Export Plug-In . SVG Version: 6.00 Build 0)  -->
<svg xmlns="http://www.w3.org/2000/svg" xmlns:xlink="http://www.w3.org/1999/xlink" version="1.1" id="Capa_1" x="0px" y="0px" viewBox="0 0 512 512" style="enable-background:new 0 0 512 512;" xml:space="preserve">
<path style="fill:#C5C9F7;" d="M60,91c-8.291,0-15-6.709-15-15V15c0-8.291,6.709-15,15-15s15,6.709,15,15v61  C75,84.291,68.291,91,60,91z"/>
<path style="fill:#A8AFF1;" d="M150,91c-8.291,0-15-6.709-15-15V15c0-8.291,6.709-15,15-15s15,6.709,15,15v61  C165,84.291,158.291,91,150,91z"/>
<path style="fill:#095C92;" d="M256,512c-57.891,0-106-48.109-106-106s48.109-105,106-105s106,47.109,106,105S313.891,512,256,512z   M256,331c-41.353,0-76,33.647-76,75s34.647,76,76,76s76-34.647,76-76S297.353,331,256,331z"/>
<path style="fill:#1DE8F1;" d="M210,76v45l-30,30H30L0,121V76c0-8.401,6.599-15,15-15h180C203.401,61,210,67.599,210,76z"/>
<path style="fill:#1BD9DE;" d="M210,76v45l-30,30h-75V61h90C203.401,61,210,67.599,210,76z"/>
<path style="fill:#0D70B2;" d="M422,279.699V346c0,24.6-5.4,47.699-15,68.399C380.9,471.4,322.599,512,256,512  c-90.901,0-166-75.101-166-166v-90c0-8.401,6.599-15,15-15s15,6.599,15,15v90c0,74.399,61.601,136,136,136s136-61.601,136-136  v-66.301c2.701-2.699,4.501-4.499,4.799-4.799C399.8,272.199,403.4,271,407,271s7.2,1.199,10.201,3.9  C417.499,275.2,419.299,277,422,279.699z"/>
<path style="fill:#78DE28;" d="M502.4,121.599c-3.6-9.598-8.399-18.898-13.801-28.198C466.399,55,434.599,21,422,8.699  C419.299,6,417.499,4.2,417.201,3.9C414.2,1.199,410.6,0,407,0s-7.2,1.199-10.201,3.9C396.501,4.2,394.701,6,392,8.699  C379.401,21,347.601,55,325.401,93.401c-5.402,9.3-10.201,18.6-13.801,28.198c-6,14.702-9.6,30-9.6,44.401  c0,62.699,67.2,113.099,90,128.399c3.9,2.401,6.599,4.2,7.2,4.501c2.401,1.5,5.099,2.1,7.8,2.1s5.4-0.601,7.8-2.1  c0.601-0.3,3.3-2.1,7.2-4.501c22.8-15.3,90-65.7,90-128.399C512,151.599,508.4,136.3,502.4,121.599z"/>
<path style="fill:#6ECD24;" d="M512,166c0,62.699-67.2,113.099-90,128.399c-3.9,2.401-6.599,4.2-7.2,4.501  c-2.401,1.5-5.099,2.1-7.8,2.1V0c3.6,0,7.2,1.199,10.201,3.9c0.298,0.3,2.098,2.1,4.799,4.799C434.599,21,466.399,55,488.599,93.401  c5.402,9.3,10.201,18.6,13.801,28.198C508.4,136.3,512,151.599,512,166z"/>
<path style="fill:#66BD21;" d="M417.201,3.9C414.2,1.199,410.6,0,407,0s-7.2,1.199-10.201,3.9C396.501,4.2,394.701,6,392,8.699  v285.7c3.9,2.401,6.599,4.2,7.2,4.501c2.401,1.5,5.099,2.1,7.8,2.1s5.4-0.601,7.8-2.1c0.601-0.3,3.3-2.1,7.2-4.501V8.699  C419.299,6,417.499,4.2,417.201,3.9z"/>
<path style="fill:#5DAD1D;" d="M417.201,3.9C414.2,1.199,410.6,0,407,0v301c2.701,0,5.4-0.601,7.8-2.1c0.601-0.3,3.3-2.1,7.2-4.501  V8.699C419.299,6,417.499,4.2,417.201,3.9z"/>
<path style="fill:#66BD21;" d="M502.4,121.599L417.499,206.5c-2.699,3-6.599,4.5-10.499,4.5s-7.8-1.5-10.499-4.501l-84.901-84.9  c3.6-9.598,8.399-18.898,13.801-28.198L407,174.699L488.599,93.4C494.001,102.7,498.8,112,502.4,121.599z"/>
<path style="fill:#5DAD1D;" d="M502.4,121.599L417.499,206.5c-2.699,3-6.599,4.5-10.499,4.5v-36.301L488.599,93.4  C494.001,102.7,498.8,112,502.4,121.599z"/>
<path style="fill:#18A7FC;" d="M210,121v45c0,57.9-47.1,105-105,105S0,223.9,0,166v-45H210z"/>
<path style="fill:#1689FC;" d="M210,121v45c0,57.9-47.1,105-105,105V121H210z"/>
<g>
</g>
<g>
</g>
<g>
</g>
<g>
</g>
<g>
</g>
<g>
</g>
<g>
</g>
<g>
</g>
<g>
</g>
<g>
</g>
<g>
</g>
<g>
</g>
<g>
</g>
<g>
</g>
<g>
</g>
</svg>
