<svg height="512" viewBox="0 0 512 512" width="512" xmlns="http://www.w3.org/2000/svg"><g id="Flat"><path d="m312 248h16v112h-16z" fill="#fff1d8"/><path d="m352 488h-192a31.99159 31.99159 0 0 1 32-32 31.99159 31.99159 0 0 0 32-32h64a31.98308 31.98308 0 0 0 32 32 31.99159 31.99159 0 0 1 32 32z" fill="#f2e368"/><path d="m320 456h-64v-16h36.28a32.00074 32.00074 0 0 0 27.72 16z" fill="#eacf4d"/><path d="m240 256h32v176h-32z" fill="#eacf4d"/><path d="m400 264h-296l48-240h200z" fill="#fc7"/><circle cx="320" cy="368" fill="#eedbc4" r="16"/></g></svg>