<?xml version="1.0" encoding="iso-8859-1"?>
<!-- Generator: Adobe Illustrator 19.0.0, SVG Export Plug-In . SVG Version: 6.00 Build 0)  -->
<svg xmlns="http://www.w3.org/2000/svg" xmlns:xlink="http://www.w3.org/1999/xlink" version="1.1" id="Capa_1" x="0px" y="0px" viewBox="0 0 512 512" style="enable-background:new 0 0 512 512;" xml:space="preserve">
<path style="fill:#C5C9F7;" d="M300.953,422h-90c-8.401,0-15,6.599-15,15v15c0,32.999,27.001,60,60,60s60-27.001,60-60v-15  C315.953,428.599,309.354,422,300.953,422z"/>
<path style="fill:#A8AFF1;" d="M315.953,437v15c0,32.999-27.001,60-60,60v-90h45C309.354,422,315.953,428.599,315.953,437z"/>
<path style="fill:#E1E4FB;" d="M345.953,361v46c0,24.899-20.099,45-45,45h-90c-24.901,0-45-20.101-45-45v-46l22.5-15h139.501  L345.953,361z"/>
<path style="fill:#C5C9F7;" d="M345.953,361v46c0,24.899-20.099,45-45,45h-45V346h72.001L345.953,361z"/>
<path style="fill:#FEDB41;" d="M435.953,181c0,60.899-30.601,117.299-81.899,150.899c-5.101,3.301-8.101,8.101-8.101,13.2V361h-180  v-17.1c0-4.501-2.401-8.401-6.899-11.4c-62.1-39.901-93.6-112.8-79.801-186c12.9-70.2,68.401-127.9,138.001-142.6  c12.9-2.701,25.8-3.9,38.699-3.9c41.1,0,81.301,14.099,113.401,40.201C411.654,74.7,435.953,126.7,435.953,181z"/>
<path style="fill:#FFCC33;" d="M435.953,181c0,60.899-30.601,117.299-81.899,150.899c-5.101,3.301-8.101,8.101-8.101,13.2V361h-90V0  c41.1,0,81.301,14.099,113.401,40.201C411.654,74.7,435.953,126.7,435.953,181z"/>
<path style="fill:#66BD21;" d="M270.953,361V239.799c0-8.399-6.599-15-15-15s-15,6.601-15,15V361H270.953z"/>
<path style="fill:#5DAD1D;" d="M270.953,361V239.799c0-8.399-6.599-15-15-15V361H270.953z"/>
<path style="fill:#78DE28;" d="M345.953,151h-30c-24.6,0-46.199,11.999-60,30.599c-13.801-18.6-35.4-30.599-60-30.599h-30  c-8.401,0-15,6.599-15,15v30c0,41.4,33.6,75,75,75h60c41.4,0,75-33.6,75-75v-30C360.953,157.599,354.354,151,345.953,151z"/>
<path style="fill:#6ECD24;" d="M360.953,166v30c0,41.4-33.6,75-75,75h-30v-89.401c13.801-18.6,35.4-30.599,60-30.599h30  C354.354,151,360.953,157.599,360.953,166z"/>
<g>
</g>
<g>
</g>
<g>
</g>
<g>
</g>
<g>
</g>
<g>
</g>
<g>
</g>
<g>
</g>
<g>
</g>
<g>
</g>
<g>
</g>
<g>
</g>
<g>
</g>
<g>
</g>
<g>
</g>
</svg>
