<?xml version="1.0" encoding="iso-8859-1"?>
<!-- Generator: Adobe Illustrator 19.0.0, SVG Export Plug-In . SVG Version: 6.00 Build 0)  -->
<svg xmlns="http://www.w3.org/2000/svg" xmlns:xlink="http://www.w3.org/1999/xlink" version="1.1" id="Capa_1" x="0px" y="0px" viewBox="0 0 512 512" style="enable-background:new 0 0 512 512;" xml:space="preserve">
<path style="fill:#0D70B2;" d="M362,75c0,8.401-6.599,15-15,15H90c-32.999,0-60,27.001-60,60s27.001,62,60,62h15.901  c8.399,0,15,6.599,15,15s-6.601,15-15,15H90c-49.501,0-90-42.499-90-92c0-31.199,16.199-58.801,40.201-75C54.6,65.7,71.7,60,90,60  h257C355.401,60,362,66.599,362,75z"/>
<path style="fill:#095C92;" d="M362,75c0,8.401-6.599,15-15,15H90c-32.999,0-60,27.001-60,60s27.001,62,60,62h15.901  c8.399,0,15,6.599,15,15s-6.601,15-15,15H90c-49.501,0-90-42.499-90-92c0-31.199,16.199-58.801,40.201-75H362z"/>
<path style="fill:#E50027;" d="M467,384.91c-8.291,0-15-6.709-15-15V347c0-8.291,6.709-15,15-15s15,6.709,15,15v22.91  C482,378.201,475.291,384.91,467,384.91z"/>
<path style="fill:#FEA832;" d="M512,437c0,24.901-20.099,45-45,45H45c-24.901,0-45-20.099-45-45v-45l30-15L1.8,362  c15-102.599,104.801-180,209.2-180c93.9,0,176.201,61.199,202.301,150.3C468.199,335.6,512,381.2,512,437z"/>
<path style="fill:#FE9923;" d="M512,437c0,24.901-20.099,45-45,45H211V182c93.9,0,176.201,61.199,202.301,150.3  C468.199,335.6,512,381.2,512,437z"/>
<path style="fill:#E1E4FB;" d="M353.599,341.901C332.601,282.201,274.6,242,211,242c-63.3,0-121.3,40.201-142.301,99.901  c-1.8,4.799-1.199,9.899,1.8,13.799c2.701,3.899,7.202,6.3,12.301,6.3h256.7c4.799,0,9.3-2.401,12.001-6.301  C354.5,351.799,355.101,346.7,353.599,341.901z"/>
<g>
	<path style="fill:#C5C9F7;" d="M351.501,355.699c-2.701,3.9-7.202,6.301-12.001,6.301H211V242   c63.6,0,121.601,40.201,142.599,99.901C355.101,346.7,354.5,351.799,351.501,355.699z"/>
	<path style="fill:#C5C9F7;" d="M497,60h-60c-8.291,0-15-6.709-15-15s6.709-15,15-15h60c8.291,0,15,6.709,15,15S505.291,60,497,60z"/>
</g>
<path style="fill:#A8AFF1;" d="M497,120h-60c-8.291,0-15-6.709-15-15s6.709-15,15-15h60c8.291,0,15,6.709,15,15S505.291,120,497,120  z"/>
<path style="fill:#FEDB41;" d="M60,377c0,8.401-6.599,15-15,15H0v-15c0.3-5.099,0.901-9.901,1.8-15H45C53.401,362,60,368.599,60,377  z"/>
<path style="fill:#0D70B2;" d="M120,392c-32.999,0-60,27.001-60,60s27.001,60,60,60s60-27.001,60-60S152.999,392,120,392z"/>
<path style="fill:#095C92;" d="M180,452c0,32.999-27.001,60-60,60V392C152.999,392,180,419.001,180,452z"/>
<path style="fill:#E1E4FB;" d="M120,422c-16.5,0-30,13.5-30,30s13.5,30,30,30s30-13.5,30-30S136.5,422,120,422z"/>
<path style="fill:#C5C9F7;" d="M150,452c0,16.5-13.5,30-30,30v-60C136.5,422,150,435.5,150,452z"/>
<path style="fill:#0D70B2;" d="M392,392c-32.999,0-60,27.001-60,60s27.001,60,60,60s60-27.001,60-60S424.999,392,392,392z"/>
<path style="fill:#095C92;" d="M452,452c0,32.999-27.001,60-60,60V392C424.999,392,452,419.001,452,452z"/>
<path style="fill:#E1E4FB;" d="M392,422c-16.5,0-30,13.5-30,30s13.5,30,30,30s30-13.5,30-30S408.5,422,392,422z"/>
<path style="fill:#C5C9F7;" d="M422,452c0,16.5-13.5,30-30,30v-60C408.5,422,422,435.5,422,452z"/>
<path style="fill:#FEA832;" d="M226,227.901V377c0,8.401-6.599,15-15,15s-15-6.599-15-15V227.901c0-8.401,6.599-15,15-15  S226,219.5,226,227.901z"/>
<path style="fill:#FE9923;" d="M226,227.901V377c0,8.401-6.599,15-15,15V212.901C219.401,212.901,226,219.5,226,227.901z"/>
<path style="fill:#18A7FC;" d="M437,0h-30c-41.4,0-75,33.6-75,75s33.6,75,75,75h30c8.401,0,15-6.599,15-15V15  C452,6.599,445.401,0,437,0z"/>
<path style="fill:#1689FC;" d="M452,75v60c0,8.401-6.599,15-15,15h-30c-41.4,0-75-33.6-75-75H452z"/>
<g>
</g>
<g>
</g>
<g>
</g>
<g>
</g>
<g>
</g>
<g>
</g>
<g>
</g>
<g>
</g>
<g>
</g>
<g>
</g>
<g>
</g>
<g>
</g>
<g>
</g>
<g>
</g>
<g>
</g>
</svg>
