<svg height="512pt" viewBox="-83 0 512 512.00104" width="512pt" xmlns="http://www.w3.org/2000/svg"><path d="m133.253906 112.925781c-1.988281-7.789062-3.179687-15.988281-3.179687-24.453125 0-38.777344 25.011719-71.964844 36.988281-85.636718 3.3125-3.78125 9.183594-3.78125 12.496094 0 11.976562 13.671874 36.992187 46.863281 36.992187 85.636718 0 50.976563-43.238281 92.304688-43.238281 92.304688s-10.089844-11.058594-21.835938-27.371094c-13.457031-18.683594-18.222656-40.480469-18.222656-40.480469zm0 0" fill="#09a66d"/><path d="m179.558594 2.835938c-3.3125-3.78125-9.183594-3.78125-12.496094 0-3.003906 3.429687-6.832031 8.089843-10.875 13.757812 12.078125 16.921875 26.109375 42.832031 26.109375 71.878906 0 28.882813-13.875 54.664063-25.910156 71.589844 9.515625 12.589844 16.925781 20.714844 16.925781 20.714844s43.238281-41.328125 43.238281-92.308594c-.003906-38.769531-25.015625-71.960938-36.992187-85.632812zm0 0" fill="#028f5d"/><path d="m321.726562 120.589844c5.511719-.816406 10.34375-1.273438 14.160157-1.523438 5.015625-.332031 9.160156 3.820313 8.832031 8.835938-1.199219 18.136718-6.984375 59.289062-34.402344 86.707031-36.050781 36.046875-95.847656 34.699219-95.847656 34.699219s-1.351562-59.792969 34.699219-95.84375c8.085937-8.082032 17.269531-14.476563 26.890625-19.042969 22.316406-10.597656 45.667968-13.832031 45.667968-13.832031zm0 0" fill="#09a66d"/><path d="m335.886719 119.066406c-3.816407.25-8.648438.707032-14.160157 1.519532 0 0-9.824218 1.367187-22.8125 5.210937.128907.679687.183594 1.382813.136719 2.105469-1.199219 18.132812-6.984375 59.289062-34.402343 86.707031-14.625 14.625-33.160157 23.089844-50.023438 27.992187-.214844 4.238282-.15625 6.703126-.15625 6.703126s59.796875 1.351562 95.847656-34.695313c27.417969-27.417969 33.203125-68.574219 34.402344-86.707031.328125-5.015625-3.816406-9.167969-8.832031-8.835938zm0 0" fill="#028f5d"/><path d="m99.433594 227.425781c36.050781 36.046875 34.703125 95.839844 34.703125 95.839844s-59.800781 1.351563-95.851563-34.699219c-27.417968-27.414062-33.203125-68.570312-34.398437-86.703125-.332031-5.019531 3.820312-9.171875 8.835937-8.835937 18.136719 1.195312 59.292969 6.980468 86.710938 34.398437zm0 0" fill="#09a66d"/><path d="m99.433594 227.425781c-27.417969-27.417969-68.574219-33.203125-86.710938-34.398437-4.210937-.28125-7.800781 2.601562-8.652344 6.5 16.773438 4.914062 35.164063 13.367187 49.695313 27.898437 28.726563 28.722657 33.707031 72.523438 34.542969 89.136719 24.703125 7.179688 45.824218 6.707031 45.824218 6.707031s1.351563-59.796875-34.699218-95.84375zm0 0" fill="#028f5d"/><path d="m294.558594 169.925781c-2.996094-3.082031-7.925782-3.15625-11.007813-.160156l-102.453125 99.535156v-195.707031c0-4.261719-3.285156-7.980469-7.546875-8.105469-4.40625-.132812-8.023437 3.402344-8.023437 7.78125v272.753907l-99.769532-102.683594c-2.996093-3.082032-7.925781-3.152344-11.007812-.15625-3.085938 2.996094-3.15625 7.921875-.160156 11.007812l110.9375 114.175782v72.191406c0 4.261718 3.285156 7.976562 7.546875 8.105468 4.40625.132813 8.023437-3.402343 8.023437-7.78125v-149.875l113.300782-110.074218c3.082031-2.996094 3.152343-7.925782.160156-11.007813zm0 0" fill="#49cb5c"/><path d="m.0898438 512s-4.3476558-38.007812 47.7851562-43.4375c31.101562-3.242188 21.71875-44.527344 53.214844-54.300781 33.480468-10.390625 43.234375 21.492187 69.503906 18.460937 28.238281-3.257812 38.015625-19.546875 61.90625-14.117187 23.894531 5.429687 22.914062 42 60.816406 45.609375 45.613282 4.34375 52.132813 24.976562 53.21875 47.785156zm0 0" fill="#de9252"/><path d="m293.316406 464.21875c-37.902344-3.613281-36.921875-40.183594-60.816406-45.613281-14.148438-3.214844-23.34375 1.1875-34.355469 5.988281 13.597657 12.09375 18.765625 36.695312 49.503907 39.625 45.613281 4.34375 52.132812 24.976562 53.21875 47.78125h45.667968c-1.085937-22.804688-7.605468-43.4375-53.21875-47.78125zm0 0" fill="#d9833b"/><g fill="#ab632e"><path d="m108.148438 468.199219c10.015624 0 10.035156-15.566407 0-15.566407-10.015626 0-10.035157 15.566407 0 15.566407zm0 0"/><path d="m188.515625 491.007812c10.019531 0 10.035156-15.570312 0-15.570312-10.019531 0-10.035156 15.570312 0 15.570312zm0 0"/><path d="m230.871094 462.769531c10.015625 0 10.035156-15.566406 0-15.566406-10.015625 0-10.035156 15.566406 0 15.566406zm0 0"/></g></svg>