<?xml version="1.0" encoding="iso-8859-1"?>
<!-- Generator: Adobe Illustrator 19.0.0, SVG Export Plug-In . SVG Version: 6.00 Build 0)  -->
<svg xmlns="http://www.w3.org/2000/svg" xmlns:xlink="http://www.w3.org/1999/xlink" version="1.1" id="Capa_1" x="0px" y="0px" viewBox="0 0 512 512" style="enable-background:new 0 0 512 512;" xml:space="preserve">
<path style="fill:#E1E4FB;" d="M391,166V75c0-8.401-6.599-15-15-15H136c-8.401,0-15,6.599-15,15v91c0,23.399,11.1,45.899,30,60  l39.901,30L151,286c-18.9,14.099-30,36.599-30,60v91c0,8.399,6.599,15,15,15h240c8.401,0,15-6.601,15-15v-91  c0-23.401-11.1-45.901-30-60l-39.901-30L361,226C379.9,211.899,391,189.399,391,166z"/>
<path style="fill:#C5C9F7;" d="M361,226l-39.901,30L361,286c18.9,14.099,30,36.599,30,60v91c0,8.399-6.599,15-15,15H256V60h120  c8.401,0,15,6.599,15,15v91C391,189.399,379.9,211.899,361,226z"/>
<path style="fill:#FEA832;" d="M356.499,447.499H155.501c-6-5.7-6-15.3,0-21l90-91C248.2,332.5,252.1,331,256,331  s7.8,1.5,10.499,4.499l90,91C362.5,432.199,362.5,441.799,356.499,447.499z"/>
<path style="fill:#FE9923;" d="M356.499,447.499H256V331c3.9,0,7.8,1.5,10.499,4.499l90,91  C362.5,432.199,362.5,441.799,356.499,447.499z"/>
<path style="fill:#FEA832;" d="M299.5,172.599l-30,60c-2.7,5.4-8.1,8.401-13.5,8.401c-2.1,0-4.501-0.601-6.599-1.5  c-7.5-3.9-10.501-12.902-6.901-20.101L256,192.4l5.7-11.4H226c-5.099,0-9.901-2.701-12.9-7.2c-2.701-4.2-2.701-9.901-0.601-14.401  l30-61C245.2,92.999,250.6,90,256,90c2.401,0,4.501,0.599,6.599,1.5c7.5,3.9,10.501,12.9,6.901,20.099L250.3,151H286  c5.099,0,9.901,2.699,12.9,7.2C301.601,162.4,301.601,168.1,299.5,172.599z"/>
<g>
	<path style="fill:#FE9923;" d="M269.5,111.599L256,139.6V90c2.401,0,4.501,0.599,6.599,1.5   C270.099,95.4,273.1,104.399,269.5,111.599z"/>
	<path style="fill:#FE9923;" d="M299.5,172.599l-30,60c-2.7,5.4-8.1,8.401-13.5,8.401v-48.6l5.7-11.4H256v-30h30   c5.099,0,9.901,2.699,12.9,7.2C301.601,162.4,301.601,168.1,299.5,172.599z"/>
</g>
<path style="fill:#0D70B2;" d="M376,422H136c-24.901,0-45,20.099-45,45v30c0,8.399,6.599,15,15,15h300c8.401,0,15-6.601,15-15v-30  C421,442.099,400.901,422,376,422z"/>
<path style="fill:#095C92;" d="M421,467v30c0,8.399-6.599,15-15,15H256v-90h120C400.901,422,421,442.099,421,467z"/>
<path style="fill:#0D70B2;" d="M406,0H106c-8.401,0-15,6.599-15,15v30c0,24.899,20.099,45,45,45h240c24.901,0,45-20.101,45-45V15  C421,6.599,414.401,0,406,0z"/>
<path style="fill:#095C92;" d="M421,15v30c0,24.899-20.099,45-45,45H256V0h150C414.401,0,421,6.599,421,15z"/>
<g>
</g>
<g>
</g>
<g>
</g>
<g>
</g>
<g>
</g>
<g>
</g>
<g>
</g>
<g>
</g>
<g>
</g>
<g>
</g>
<g>
</g>
<g>
</g>
<g>
</g>
<g>
</g>
<g>
</g>
</svg>
