<?xml version="1.0" encoding="iso-8859-1"?>
<!-- Generator: Adobe Illustrator 19.0.0, SVG Export Plug-In . SVG Version: 6.00 Build 0)  -->
<svg xmlns="http://www.w3.org/2000/svg" xmlns:xlink="http://www.w3.org/1999/xlink" version="1.1" id="Capa_1" x="0px" y="0px" viewBox="0 0 512.001 512.001" style="enable-background:new 0 0 512.001 512.001;" xml:space="preserve">
<path style="fill:#0D70B2;" d="M378,390.701h-60c-8.401,0-15,6.599-15,15v91c0,8.399,6.599,15,15,15h60c8.401,0,15-6.601,15-15v-91  C393,397.3,386.401,390.701,378,390.701z"/>
<path style="fill:#095C92;" d="M393,405.701v91c0,8.399-6.599,15-15,15h-30v-121h30C386.401,390.701,393,397.3,393,405.701z"/>
<path style="fill:#5DAD1D;" d="M509.5,397.3l-65.499-96.599h24c5.4,0,10.499-3.001,13.2-7.8c2.701-5.099,2.401-10.8-0.601-15.601  l-64.499-96.599h24c5.4,0,10.199-3.001,12.9-7.8c2.701-4.501,2.701-10.499-0.3-15l-91.8-151C358.201,2.4,353.1,0.3,348,0.3  s-10.201,2.1-12.9,6.601l-91.8,151c-3.001,4.501-3.001,10.499-0.3,15c2.701,4.799,7.5,7.8,12.9,7.8h24L215.401,277.3  c-3.001,4.801-3.301,10.501-0.601,15.601c2.701,4.799,7.8,7.8,13.2,7.8h24L187.501,397.3c-3.001,4.801-3.301,10.501-0.901,15.601  c2.701,4.799,7.8,7.8,13.5,7.8h296.8c5.7,0,10.8-3.001,13.5-7.8C512.801,407.801,512.501,402.101,509.5,397.3z"/>
<path style="fill:#559E1B;" d="M510.401,412.901c-2.701,4.799-7.8,7.8-13.5,7.8H348V0.3c5.099,0,10.201,2.1,12.9,6.601l91.8,151  c3.001,4.501,3.001,10.499,0.3,15c-2.701,4.799-7.5,7.8-12.9,7.8h-24l64.5,96.599c3.001,4.801,3.301,10.501,0.601,15.601  c-2.701,4.799-7.8,7.8-13.2,7.8h-24L509.5,397.3C512.501,402.101,512.801,407.801,510.401,412.901z"/>
<path style="fill:#0D70B2;" d="M194,390.701h-60c-8.401,0-15,6.599-15,15v91c0,8.399,6.599,15,15,15h60c8.401,0,15-6.601,15-15v-91  C209,397.3,202.401,390.701,194,390.701z"/>
<path style="fill:#095C92;" d="M209,405.701v91c0,8.399-6.599,15-15,15h-30v-121h30C202.401,390.701,209,397.3,209,405.701z"/>
<path style="fill:#7BCC29;" d="M324.5,397.3l-64.499-96.599h24c5.4,0,10.499-3.001,13.2-7.8c2.701-5.099,2.401-10.8-0.601-15.601  l-64.499-96.599h24c5.4,0,10.199-3.001,12.9-7.8c2.701-4.501,2.701-10.499-0.3-15l-91.8-151C174.201,2.4,169.1,0.3,164,0.3  s-10.201,2.1-12.9,6.601l-91.8,151c-3.001,4.501-3.001,10.499-0.3,15c2.701,4.799,7.5,7.8,12.9,7.8h24L31.401,277.3  c-3.001,4.801-3.301,10.501-0.601,15.601c2.701,4.799,7.8,7.8,13.2,7.8h24L2.501,397.3C-0.5,402.101-0.8,407.801,1.6,412.901  c2.701,4.799,7.8,7.8,13.5,7.8h296.8c5.7,0,10.8-3.001,13.5-7.8C327.801,407.801,327.501,402.101,324.5,397.3z"/>
<path style="fill:#6EB825;" d="M325.401,412.901c-2.701,4.799-7.8,7.8-13.5,7.8H164V0.3c5.099,0,10.201,2.1,12.9,6.601l91.8,151  c3.001,4.501,3.001,10.499,0.3,15c-2.701,4.799-7.5,7.8-12.9,7.8h-24l64.5,96.599c3.001,4.801,3.301,10.501,0.601,15.601  c-2.701,4.799-7.8,7.8-13.2,7.8h-24L324.5,397.3C327.501,402.101,327.801,407.801,325.401,412.901z"/>
<g>
</g>
<g>
</g>
<g>
</g>
<g>
</g>
<g>
</g>
<g>
</g>
<g>
</g>
<g>
</g>
<g>
</g>
<g>
</g>
<g>
</g>
<g>
</g>
<g>
</g>
<g>
</g>
<g>
</g>
</svg>
