<?xml version="1.0" encoding="iso-8859-1"?>
<!-- Generator: Adobe Illustrator 19.0.0, SVG Export Plug-In . SVG Version: 6.00 Build 0)  -->
<svg xmlns="http://www.w3.org/2000/svg" xmlns:xlink="http://www.w3.org/1999/xlink" version="1.1" id="Capa_1" x="0px" y="0px" viewBox="0 0 512 512" style="enable-background:new 0 0 512 512;" xml:space="preserve">
<path style="fill:#FD003A;" d="M256,211c-24.901,0-45,20.099-45,45c0,24.899,20.099,45,45,45s45-20.101,45-45  C301,231.099,280.901,211,256,211z"/>
<path style="fill:#E50027;" d="M301,256c0,24.899-20.099,45-45,45v-90C280.901,211,301,231.099,301,256z"/>
<path style="fill:#1DE8F1;" d="M256,0c-68.101,0-105,132.4-105,256s36.899,256,105,256s105-132.4,105-256S324.101,0,256,0z M256,482  c-35.4,0-75-97.301-75-226c0-128.701,39.6-226,75-226s75,97.299,75,226C331,384.699,291.4,482,256,482z"/>
<path style="fill:#1BD9DE;" d="M361,256c0,123.6-36.899,256-105,256v-30c35.4,0,75-97.301,75-226c0-128.701-39.6-226-75-226V0  C324.101,0,361,132.4,361,256z"/>
<path style="fill:#18A7FC;" d="M476.8,128.5c-28.5-49.799-126.599-33.6-220.8,9.6c-17.701,8.099-35.4,17.1-52.5,26.999  c-74.399,42.9-208.801,148.5-168.3,218.401c29.399,51,129.6,32.1,220.8-9.6c17.999-8.101,35.7-17.401,52.5-27.001  C382.899,303.999,517.301,198.399,476.8,128.5z M293.5,321.099c-12.599,7.2-25.201,13.801-37.5,19.799  c-96.301,47.1-179.099,54.6-195,27.601c-17.1-30,43.2-111.601,157.5-177.601c12.599-7.2,25.201-13.799,37.5-19.799  c96.301-47.1,179.099-54.6,195-27.599C468.1,173.5,407.8,255.099,293.5,321.099z"/>
<path style="fill:#1689FC;" d="M308.5,346.899c-16.8,9.6-34.501,18.9-52.5,27.001v-33.001c12.299-5.999,24.901-12.599,37.5-19.799  C407.8,255.099,468.1,173.5,451,143.5c-15.901-27.001-98.699-19.501-195,27.599V138.1c94.2-43.2,192.299-59.399,220.8-9.6  C517.301,198.399,382.899,303.999,308.5,346.899z"/>
<path style="fill:#78DE28;" d="M308.5,165.099c-17.1-9.899-34.799-18.9-52.5-26.999c-94.2-43.2-192.001-59.399-220.8-9.6  C2.8,184.3,88.001,280.3,203.5,346.899c15,8.701,32.999,18.001,52.5,26.7c81.301,36.899,188.699,65.4,220.8,9.901  C509.2,327.7,423.999,231.7,308.5,165.099z M451,368.5c-15.601,26.999-98.699,19.499-195-27.601  c-12.299-5.999-24.901-12.599-37.5-19.799C104.2,255.099,43.9,173.5,61,143.5c15.901-27.001,98.699-19.501,195,27.599  c12.299,6,24.901,12.599,37.5,19.799C407.8,256.899,468.1,338.5,451,368.5z"/>
<path style="fill:#6ECD24;" d="M476.8,383.5c-32.1,55.499-139.499,26.999-220.8-9.901v-32.701c96.301,47.1,179.399,54.6,195,27.601  c17.1-30-43.2-111.601-157.5-177.601c-12.599-7.2-25.201-13.799-37.5-19.799V138.1c17.701,8.099,35.4,17.1,52.5,26.999  C423.999,231.7,509.2,327.7,476.8,383.5z"/>
<g>
</g>
<g>
</g>
<g>
</g>
<g>
</g>
<g>
</g>
<g>
</g>
<g>
</g>
<g>
</g>
<g>
</g>
<g>
</g>
<g>
</g>
<g>
</g>
<g>
</g>
<g>
</g>
<g>
</g>
</svg>
