<svg height="512" viewBox="0 0 512 512" width="512" xmlns="http://www.w3.org/2000/svg"><g id="Flat"><path d="m424 272v32h-104v-16q-6.2699 1.78491-12.58008 3.37012a417.61547 417.61547 0 0 1 -43.98 8.60986 416.39985 416.39985 0 0 1 -57.67992 4.02002h-165.76a16 16 0 1 1 0-32h16l136-16c36.99 0 144-24 144-24l64 24h8a15.99548 15.99548 0 0 1 16 16z" fill="#a1764a"/><path d="m433.62 231.95a38.25773 38.25773 0 0 1 -35.52 24.05h-78.1c-1.59009.45-3.17993.8999-4.77 1.33008a418.741 418.741 0 0 1 -51.79 10.6499 416.39985 416.39985 0 0 1 -57.68 4.02002h-155.38a26.37653 26.37653 0 0 1 -5.18-52.24l98.8-19.76a57.89961 57.89961 0 0 0 51.78 32 176.229 176.229 0 0 0 69.51-14.27l64.57-27.66992 14.14-6.06008h80l8.32007 16.62988a38.28693 38.28693 0 0 1 1.29993 31.32012z" fill="#bc8d5d"/><path d="m424 272v32h-104v-16q-6.2699 1.78491-12.58008 3.37012l7.81006-34.04c1.59009-.43018 3.17993-.88013 4.77-1.33008h88a15.99548 15.99548 0 0 1 16.00002 15.99996z" fill="#8c6231"/><path d="m433.62 231.95a38.25773 38.25773 0 0 1 -35.52 24.05h-78.1c-1.59009.45-3.17993.8999-4.77 1.33008l12.6001-54.8501s.85986-5.87988 2.02991-12.41992l14.13999-6.06006h80l8.32007 16.62988a38.28693 38.28693 0 0 1 1.29993 31.32012z" fill="#a1764a"/><path d="m482.25 330.04-34.38416-127.49752q-1.09584-4.92774-2.40584-9.81248l-14.42-53.73-4.65-17.34009c-.01-.03-.01-.05-.02-.07983l-13.48-50.22022a22.03853 22.03853 0 0 0 -41.91-.28979l-15.54006 67.92993-9.51 41.58984c-2.0227 8.84278-4.13122 23.51245-3.91992 21.89014l-24.29002 105.77002a146.56318 146.56318 0 0 0 19.18994 111.47 78.3394 78.3394 0 0 0 133.76-2.59009 114.01713 114.01713 0 0 0 11.58006-87.08991z" fill="#bc8d5d"/><path d="m452.62 272.52-.49 5.97a53.99073 53.99073 0 0 1 -107.17 3.73l-2.19-14.21a233.176 233.176 0 0 1 3.15991-87.42017l9.51003-41.58983 15.54-67.92993a22.03853 22.03853 0 0 1 41.91.28979l13.48 50.22022c.01.02978.01.0498.02.07983l4.65006 17.34009 14.42 53.73a233.0707 233.0707 0 0 1 7.16 79.79z" fill="#eedbc4"/><path d="m447.37012 334.61427.62988 1.38573h-96v-.00009a439.23412 439.23412 0 0 0 25.3286-181.39945l-.148-2.07189a15.42929 15.42929 0 0 1 15.39008-16.52857 15.42929 15.42929 0 0 1 15.42932 15.42928v1.42851a439.23444 439.23444 0 0 0 39.37012 181.75648z" fill="#fff1d8"/><path d="m486.17993 359.71a113.99439 113.99439 0 0 1 -15.51 57.41992 78.32728 78.32728 0 0 1 -133.76 2.59009 146.56318 146.56318 0 0 1 -19.18993-111.47001l24.29-105.77a233.19409 233.19409 0 0 0 .76 65.53l2.19 14.21a53.99231 53.99231 0 0 0 107.17-3.73l.49-5.97a232.86838 232.86838 0 0 0 -4.78992-70.11011l34.41992 127.63011a114.04027 114.04027 0 0 1 3.92993 29.67z" fill="#bc8d5d"/><path d="m426.37 121.58008a34.63724 34.63724 0 0 0 -67.21009 1.38992l11.82009-51.89993a22.03853 22.03853 0 0 1 41.91.28979z" fill="#bc8d5d"/><path d="m50.474 217.6h43.051v16h-43.051z" fill="#e3ccb6" transform="matrix(.743 -.669 .669 .743 -132.435 106.076)"/><path d="m64 175.275h16v43.051h-16z" fill="#eedbc4" transform="matrix(.669 -.743 .743 .669 -122.446 118.666)"/><path d="m103.97266 251.5a23.967 23.967 0 0 1 -23.97266-23.92578v-16.374a8 8 0 0 1 6.43066-7.84473l12.76612-2.55371a23.91507 23.91507 0 0 1 28.604 23.25195l.02783 3.32031a23.93677 23.93677 0 0 1 -23.85595 24.12596zm-7.97266-33.74121v9.81543a7.91493 7.91493 0 1 0 15.82959-.06641l-.02783-3.32031a7.91467 7.91467 0 0 0 -9.4668-7.69629z" fill="#eedbc4"/><path d="m88 219.2002a8.00062 8.00062 0 0 1 -8-8v-17.50489a22.434 22.434 0 0 1 17.01709-21.7959l2.84863-.71191a22.468 22.468 0 0 1 27.91309 22.06055 22.57629 22.57629 0 0 1 -18.05957 21.7666l-20.15039 4.03027a7.9758 7.9758 0 0 1 -1.56885.15528zm17.3291-32.68653a6.56381 6.56381 0 0 0 -1.58447.19629l-2.84815.71192a6.45782 6.45782 0 0 0 -4.89648 6.27343v7.7461l10.58154-2.11621a6.4982 6.4982 0 0 0 5.19825-6.26563 6.47385 6.47385 0 0 0 -6.45069-6.5459z" fill="#fff1d8"/><path d="m407.09 378.474h16v43.051h-16z" fill="#e3ccb6" transform="matrix(.743 -.669 .669 .743 -161.03 380.361)"/><path d="m364.765 392h43.051v16h-43.051z" fill="#eedbc4" transform="matrix(.669 -.743 .743 .669 -169.442 419.547)"/><path d="m424 392.1709h-24a8.00008 8.00008 0 0 1 -8-8v-8.06836a31.96779 31.96779 0 0 1 31.93164-31.93164 24 24 0 1 1 .06836 48zm-16-16h16a8 8 0 0 0 0-16 15.96413 15.96413 0 0 0 -16 15.93164z" fill="#eedbc4"/><path d="m400 392.1709h-23.94922a24.05127 24.05127 0 0 1 -.001-48.10254h.103a32.04833 32.04833 0 0 1 31.84722 31.9834v8.11914a8.00008 8.00008 0 0 1 -8 8zm-23.94922-32.10254a8.05127 8.05127 0 0 0 0 16.10254h15.94922v-.11914a16.01547 16.01547 0 0 0 -15.91455-15.9834z" fill="#fff1d8"/></g></svg>