<?xml version="1.0" encoding="iso-8859-1"?>
<!-- Generator: Adobe Illustrator 19.0.0, SVG Export Plug-In . SVG Version: 6.00 Build 0)  -->
<svg xmlns="http://www.w3.org/2000/svg" xmlns:xlink="http://www.w3.org/1999/xlink" version="1.1" id="Capa_1" x="0px" y="0px" viewBox="0 0 512 512" style="enable-background:new 0 0 512 512;" xml:space="preserve">
<path style="fill:#C5C9F7;" d="M330.7,434.599c0.901,4.501-0.3,8.699-3.3,12.001c-2.701,3.6-6.899,5.4-11.4,5.4H196  c-4.501,0-8.699-1.8-11.4-5.4c-2.999-3.301-4.2-7.5-3.3-12.001l30-189.101c1.199-8.099,9-13.799,17.1-12.299h55.199  c8.101-1.5,15.901,4.2,17.1,12.299L330.7,434.599z"/>
<path style="fill:#A8AFF1;" d="M330.7,434.599c0.901,4.501-0.3,8.699-3.3,12.001c-2.701,3.6-6.899,5.4-11.4,5.4h-60V233.2h27.599  c8.101-1.5,15.901,4.2,17.1,12.299L330.7,434.599z"/>
<path style="fill:#78DE28;" d="M408.401,232L301,169.9V45c0-24.901-20.099-45-45-45s-45,20.099-45,45v124.9L103.599,232  C82,244.3,74.801,271.899,87.1,293.5c12.599,21.599,40.201,28.5,61.5,16.5L256,247.899L363.401,310  c21.599,12.299,48.9,5.099,61.5-16.5C437.199,271.899,430,244.3,408.401,232z"/>
<path style="fill:#6ECD24;" d="M424.9,293.5c-12.599,21.599-39.901,28.799-61.5,16.5L256,247.899V0c24.901,0,45,20.099,45,45v124.9  L408.401,232C430,244.3,437.199,271.899,424.9,293.5z"/>
<path style="fill:#1DE8F1;" d="M76,211.117c-8.291,0-15-6.606-15-14.897V196c0-69.375,37.427-135.106,97.676-169.94  c7.178-4.189,16.348-1.699,20.493,5.464c4.16,7.178,1.699,16.348-5.464,20.493C122.685,81.519,91,137.304,91,196  C91,204.291,84.291,211.117,76,211.117z"/>
<path style="fill:#1BD9DE;" d="M436,211.117c-8.291,0-15-6.592-15-14.883c0-58.931-31.685-114.716-82.705-144.218  c-7.163-4.146-9.624-13.315-5.464-20.493c4.131-7.163,13.271-9.653,20.493-5.464C413.573,60.894,451,126.625,451,196  C451,204.291,444.291,211.117,436,211.117z"/>
<path style="fill:#1DE8F1;" d="M137.465,171.977c-7.852-2.651-12.07-11.162-9.434-19.014c5.742-17.036,14.722-32.563,26.719-46.172  c5.493-6.226,14.971-6.782,21.167-1.333c6.211,5.479,6.812,14.956,1.333,21.167c-9.331,10.591-16.318,22.676-20.771,35.918  C153.873,170.269,145.471,174.621,137.465,171.977z"/>
<path style="fill:#1BD9DE;" d="M355.521,162.543c-4.453-13.242-11.44-25.327-20.771-35.918c-5.479-6.211-4.878-15.688,1.333-21.167  c6.24-5.449,15.703-4.893,21.167,1.333c11.997,13.608,20.977,29.136,26.719,46.172c2.637,7.852-1.582,16.362-9.434,19.014  C366.529,174.621,358.127,170.269,355.521,162.543z"/>
<path style="fill:#7BCC29;" d="M346,422H166c-24.901,0-45,20.099-45,45v30c0,8.399,6.599,15,15,15h240c8.401,0,15-6.601,15-15v-30  C391,442.099,370.901,422,346,422z"/>
<path style="fill:#6EB825;" d="M391,467v30c0,8.399-6.599,15-15,15H256v-90h90C370.901,422,391,442.099,391,467z"/>
<path style="fill:#E1E4FB;" d="M256,151c-24.901,0-45,20.099-45,45c0,24.899,20.099,45,45,45s45-20.101,45-45  C301,171.099,280.901,151,256,151z"/>
<g>
	<path style="fill:#C5C9F7;" d="M256,181c-8.401,0-15,6.599-15,15c0,8.399,6.599,15,15,15s15-6.601,15-15   C271,187.599,264.401,181,256,181z"/>
	<path style="fill:#C5C9F7;" d="M301,196c0,24.899-20.099,45-45,45v-90C280.901,151,301,171.099,301,196z"/>
</g>
<path style="fill:#A8AFF1;" d="M271,196c0,8.399-6.599,15-15,15v-30C264.401,181,271,187.599,271,196z"/>
<g>
</g>
<g>
</g>
<g>
</g>
<g>
</g>
<g>
</g>
<g>
</g>
<g>
</g>
<g>
</g>
<g>
</g>
<g>
</g>
<g>
</g>
<g>
</g>
<g>
</g>
<g>
</g>
<g>
</g>
</svg>
