<?xml version="1.0" encoding="iso-8859-1"?>
<!-- Generator: Adobe Illustrator 19.0.0, SVG Export Plug-In . SVG Version: 6.00 Build 0)  -->
<svg version="1.1" id="Layer_1" xmlns="http://www.w3.org/2000/svg" xmlns:xlink="http://www.w3.org/1999/xlink" x="0px" y="0px"
	 viewBox="0 0 508.011 508.011" style="enable-background:new 0 0 508.011 508.011;" xml:space="preserve">
<path style="fill:#40596B;" d="M504.819,130.692c0,0-32.9-83.9-64.4-79.9c-1.9,0.3-3.6,0.8-5.5,1.6c0,0-125.1,117.9-199.9,232.2
	c0,0-20,36.9-104.6,43c-1.8,0.2-3.9,0.3-5.9,0.3c0,0-31.9,5.9-63.6,18.3c-23.4,9.1-46.7,21.7-57.1,38c-6.2,9.8-4.5,22.5,4,30.5
	c11.3,10.7,36.1,24.9,90.6,34c25.5,4.3,57.5,7.4,97.7,8.6c34.1,1,68-9.4,93.5-31.7c15.3-13.4,29.5-32.1,37.7-58.1
	c5.5-17.6,13.6-34.2,23.4-49.9c19.4-31,51.2-73,75.7-63.5l8.6,185.6h26.4l2.2-131.8c0.5-29.8,7.5-59.3,21.3-85.9
	C499.419,194.092,514.819,155.192,504.819,130.692z"/>
<path style="fill:#334A5E;" d="M393.519,125.792c-33.6,41.2-134.8,189.5-134.8,189.5s-33.5,51.3-100.5,48
	c-38-1.9-36.4-20.2-27.9-35.6c84.6-6.1,104.6-43,104.6-43c74.9-114.3,200-232.3,200-232.3c1.9-0.9,3.6-1.3,5.5-1.6
	C442.619,60.392,427.819,83.692,393.519,125.792z"/>
<path style="fill:#CDD6E0;" d="M60.819,346.292c-23.4,9.1-46.7,21.7-57.1,38c-6.2,9.8-4.5,22.5,4,30.5c11.3,10.7,36.1,24.9,90.6,34
	c1.5-7.1,2.3-14.5,2.3-22.1C100.519,392.492,84.619,362.592,60.819,346.292z"/>
<g>
</g>
<g>
</g>
<g>
</g>
<g>
</g>
<g>
</g>
<g>
</g>
<g>
</g>
<g>
</g>
<g>
</g>
<g>
</g>
<g>
</g>
<g>
</g>
<g>
</g>
<g>
</g>
<g>
</g>
</svg>
